# xmcd
#
# Track frame offsets:
#	150
#	17313
#	28138
#	44802
#	53751
#	70119
#	88663
#	97585
#	110655
#	123082
#	137173
#	157487
#	169702
#
# Disc length: 2427 seconds
#
# Revision: 0
# Processed by: cddbd v1.5.1PL2 Copyright (c) Steve Scherf et al.
# Submitted via: audiograbber 1.80
#
DISCID=aa09790d
DTITLE=Greenhorns - Øidiè tvrdý chleba má
DYEAR=1900
DGENRE=
TTITLE0=Øidiè tvrdý chleba má
TTITLE1=Blues prázdného motelu
TTITLE2=Cítím vùni vlasù tvých
TTITLE3=Psí písen
TTITLE4=Dívka,co se smála jak Chaplinùv Kid
TTITLE5=Cadillac
TTITLE6=Dìlová koule
TTITLE7=Toulám se zas dál
TTITLE8=Zbyl mi jen tvùj mokasín
TTITLE9=Fidlací song
TTITLE10=To jen babí léto
TTITLE11=Rozmarná kráska
TTITLE12=Jo,to byl den
EXTD=
EXTT0=
EXTT1=
EXTT2=
EXTT3=
EXTT4=
EXTT5=
EXTT6=
EXTT7=
EXTT8=
EXTT9=
EXTT10=
EXTT11=
EXTT12=
PLAYORDER=
